<?xml version="1.0" encoding="UTF-8"?>
<svg id="Layer_2" data-name="Layer 2" xmlns="http://www.w3.org/2000/svg" viewBox="0 0 282.19 506.7">
  <defs>
    <style>
      .cls-1 {
        fill: #0066bf;
      }

      .cls-2 {
        fill: #ffa30a;
      }
    </style>
  </defs>
  <g id="Layer_1-2" data-name="Layer 1">
    <g>
      <path class="cls-1" d="M268.21,272.42c-3.04-.22-6.05.47-8.64,1.97V118.51c0-.86-.02-1.75-.04-2.64v-.16c0-.22,0-.44-.02-.69l-.02-.71c0-.13,0-.29-.02-.44v-.29c-.02-.51-.04-1.02-.07-1.55-.02-.24-.04-.49-.04-.73l-.02-.2c-.04-.93-.11-1.73-.18-2.46-.02-.4-.07-.78-.09-1.15-.02-.24-.04-.44-.07-.6-.02-.31-.07-.6-.09-.89-.02-.33-.07-.66-.11-1-1.46-12.9-5.01-25.35-10.55-37.07-5.39-11.41-12.54-21.85-21.25-31.02-8.71-9.15-18.73-16.82-29.83-22.8-11.35-6.12-23.53-10.3-36.26-12.45l-.22-.02c-.07-.02-.13-.02-.2-.04l-.13-.02c-1.95-.31-3.94-.6-5.92-.82l-2.15-.22c-.6-.04-1.18-.11-1.73-.16-.35-.02-.73-.04-1.09-.07l-.11-.02c-.53-.02-1.06-.07-1.59-.09-.35-.02-.73-.04-1.11-.07-.69-.02-1.29-.04-1.84-.07h-.02c-.2,0-.4-.02-.62-.02h-.38l-.44-.02c-.78,0-1.55-.02-2.33-.02s-1.62,0-2.53.02c-.38.02-.73.02-1.11.04-.33,0-.64.02-.91.02l-.2.02c-.38,0-.75.02-1.11.04-.38,0-.73.02-1.09.07h-.33c-.33.02-.69.04-1.02.07-.84.07-1.68.13-2.59.22l-.35.02c-.2.02-.38.04-.55.04l-.86.07-.11.04c-.44.04-.86.09-1.31.15-1.57.18-3.12.4-4.63.64l-.13.02c-.29.04-.55.09-.84.13C71.73,9.93,32.71,48.82,24.22,98.39c-.02.18-.05.35-.09.51l-.02.22c-.11.71-.22,1.4-.33,2.13-.04.27-.09.53-.11.8-.13.91-.27,1.84-.35,2.81-.02.07-.02.13-.04.2l-.07.6c-.02.27-.07.55-.09.82l-.02.31c-.02.2-.04.42-.07.62l-.02.31c-.15,1.84-.29,3.66-.35,5.41-.05.62-.07,1.24-.09,1.88v.58c-.05,1.04-.05,1.99-.05,2.93v155.85c-1.88-1.09-3.99-1.77-6.25-1.95-.4-.02-.78-.04-1.13-.04-.22,0-.42,0-.62.02h-.11c-.2,0-.38.02-.58.04-.24.02-.49.04-.73.07-.11.02-.2.04-.29.04-.13.02-.27.04-.38.07-.2.04-.42.09-.62.13-.16.02-.33.07-.51.11-.2.07-.4.11-.6.18h-.04c-.2.07-.4.13-.6.2-.2.09-.4.16-.6.24-.18.07-.38.16-.58.24-.2.09-.4.18-.58.27-.15.09-.31.18-.47.24-.24.13-.49.29-.71.42-.18.11-.33.22-.49.33-.18.11-.35.22-.51.35-.02.02-.04.02-.09.04-.16.11-.29.24-.44.35,0,.02-.02.02-.04.04-.13.11-.27.22-.4.33-.02.02-.07.04-.09.09-.15.13-.31.27-.44.4-.18.18-.33.33-.51.51-.13.16-.27.31-.4.44-.13.15-.24.31-.38.44v.02c-.07.07-.13.16-.18.22-.35.44-.69.91-.98,1.42-.11.16-.2.31-.29.47-.82,1.46-1.46,3.12-1.82,4.92-.07.27-.09.51-.09.75v33.68c0,16.35,2.75,32.42,8.16,47.78,5.25,14.85,12.85,28.68,22.63,41.09,19.63,24.93,47.18,42.7,77.56,50.04.8.2,1.59.38,2.42.55v6.49c0,6.98-5.67,12.65-12.65,12.65h-15.07c-3.81,0-7.4,1.48-10.11,4.19-2.7,2.68-4.19,6.27-4.19,10.11s1.48,7.42,4.19,10.13c2.7,2.7,6.29,4.19,10.11,4.19h116.12c3.39,0,6.6-1.17,9.17-3.35.18-.13.35-.29.53-.44.09-.09.18-.16.24-.24.16-.13.29-.29.44-.42.07-.09.13-.18.22-.24.07-.09.16-.18.22-.29.07-.07.13-.13.2-.22.13-.15.24-.31.35-.47.09-.09.16-.18.22-.29.4-.53.73-1.09,1.04-1.66.07-.09.09-.18.13-.27.31-.6.55-1.22.77-1.84.04-.09.07-.2.09-.29.22-.69.4-1.4.49-2.13.04-.24.07-.49.11-.73,0-.11.02-.22.02-.35,0-.09.02-.18.02-.27,0-.27.02-.53.02-.82,0-3.83-1.51-7.42-4.21-10.11-2.64-2.64-6.14-4.12-9.86-4.19h-15.6c-6.85-.18-12.32-5.78-12.32-12.65v-6.49c.4-.09.8-.18,1.2-.27l1.15-.29c.33-.07.64-.16.95-.22.22-.07.47-.13.69-.18.07-.02.13-.04.2-.07,1.46-.35,2.9-.75,4.37-1.17.07-.02.13-.04.2-.07,1.42-.4,2.68-.75,3.43-.98l.31-.09s.09-.02.13-.04l.24-.09c14.03-4.52,27.21-11.21,39.22-19.88,11.83-8.55,22.25-18.86,30.96-30.6,18.08-24.42,27.66-53.41,27.66-83.81v-33.31c0-8.09-6.14-14.89-13.98-15.47ZM54.12,77.89l.04-.18c.84-2.22,2.95-3.7,5.32-3.7h24.86c3.46,0,6.58-2.44,7.45-5.67.02-.09.04-.18.07-.27.02-.09.05-.16.05-.22.04-.11.04-.24.07-.35.02-.13.04-.24.04-.38v-.02c0-.07.02-.13.02-.2v-.16c.07-2.04-.69-3.9-1.95-5.3-.07-.09-.15-.18-.24-.27-1.35-1.35-3.24-2.19-5.32-2.19h-9.68c-3.68,0-5.56-4.41-3.01-7.07.02,0,.02-.02.05-.04l.07-.07c4.19-4.32,8.8-8.24,13.72-11.72.09-.04.16-.11.22-.15,1.17-.82,2.39-1.64,3.61-2.42.73-.47,1.46-.93,2.19-1.35.64-.4,1.31-.8,1.97-1.17.78-.42,1.55-.84,2.35-1.26.78-.42,1.57-.84,2.37-1.22.71-.35,1.42-.71,2.15-1.02,2.37-1.13,4.81-2.13,7.29-3.04.44-.15.86-.33,1.33-.47.53-.2,1.11-.4,1.66-.58.86-.29,1.73-.55,2.59-.8.73-.24,1.48-.44,2.24-.64.2-.07.4-.11.6-.16.8-.24,1.62-.42,2.44-.6.89-.24,1.77-.42,2.66-.62,1.06-.2,2.13-.42,3.19-.58.75-.13,1.51-.27,2.24-.38.75-.11,1.51-.22,2.26-.29.44-.07.86-.11,1.31-.16.53-.04,1.04-.11,1.55-.16,1.13-.11,2.28-.18,3.41-.27.89-.04,1.77-.09,2.64-.11.95-.02,1.91-.04,2.86-.04,1.09,0,2.19.02,3.28.07,1.02.02,2.02.09,3.01.16.18,0,.35.02.53.02.97.09,1.97.16,2.95.27h.02c1.02.09,2.04.22,3.06.35.11.02.24.02.35.04.8.11,1.6.22,2.35.35.44.07.89.13,1.35.24.86.13,1.73.31,2.59.49,1.04.2,2.06.42,3.06.69.6.16,1.17.29,1.77.47.58.13,1.18.29,1.75.47,2.02.55,4.01,1.2,5.98,1.91.78.27,1.55.55,2.33.86.91.31,1.8.69,2.66,1.06.13.04.29.09.42.16.89.4,1.77.78,2.66,1.2.93.42,1.86.86,2.77,1.33,1.86.93,3.66,1.91,5.43,2.95.89.53,1.77,1.06,2.64,1.6,1.75,1.11,3.46,2.26,5.1,3.46,2.08,1.51,4.1,3.08,6.05,4.74,1.95,1.66,3.81,3.39,5.63,5.21,1.44,1.44,2.84,2.93,4.21,4.45,1.51,1.73,2.97,3.5,4.37,5.32.47.62.93,1.24,1.37,1.86l.04.07c.09.11.18.22.24.33.11.18.2.35.29.53.04.09.07.16.11.24.07.16.13.33.18.49.04.18.07.35.11.51.04.33.07.66.04,1v.02c0,.11-.02.22-.02.33-.04.33-.13.66-.24,1-.05.18-.13.35-.2.51v.02c-.09.16-.18.33-.29.49l-.13.2c-.13.18-.27.35-.42.53-.33.33-.69.62-1.11.84-.13.09-.27.16-.42.22-.58.24-1.22.4-1.93.4h-90.77c-7.22,0-14.14,2.88-19.26,7.98l-5.07,5.07c-2.28,2.3-5.41,3.59-8.64,3.59h-30.76c-4.57,0-7.71-4.57-6.12-8.82ZM45.58,113.62v-.35c.38-6.45,5.72-11.52,12.19-11.52h33.24c7.27,0,14.12-2.84,19.26-7.98l5.1-5.07c2.28-2.28,5.38-3.57,8.62-3.57h100.34c.49,0,.95.04,1.44.16,1.33.27,2.7.91,3.86,1.77.09.07.18.13.24.2.24.2.49.4.69.6.09.09.15.16.22.22.58.58,1.04,1.22,1.37,1.88v.02c.89,1.77.75,3.68-.04,5.23-.09.16-.18.31-.29.47-.15.24-.31.47-.49.66-.07.07-.13.13-.2.2-1.02,1.06-2.46,1.75-4.12,1.75h-41.4c-4.37,0-7.89,3.74-7.47,8.22.33,3.92,3.86,6.83,7.78,6.83h44.12c1.02,0,1.99.22,2.86.64.29.13.55.31.82.49.18.11.35.24.51.38.18.13.33.27.47.42,1.35,1.35,2.11,3.26,1.91,5.34-.02.2-.04.4-.09.6v.02s-.02.04-.02.07c0,.07-.02.13-.05.22-.04.2-.11.38-.18.55v.04c-.04.09-.07.18-.09.27-1.02,2.48-3.63,4.12-6.43,4.12h-50.06c-3.12,0-6.12-1.18-8.38-3.32l-6.21-5.87c-5.07-4.79-11.72-7.42-18.7-7.42h-16.64c-7.22,0-14.16,2.86-19.26,7.96l-5.1,5.1c-2.28,2.28-5.36,3.57-8.6,3.57h-39.05c-7.02,0-12.59-5.87-12.19-12.88ZM51.83,214.98c-3.21,0-6.18-2.13-6.82-5.28-.47-2.34.36-4.48,1.83-5.96,1.2-1.22,2.86-1.97,4.7-1.97h45.63c3.12,0,6.09,1.2,8.38,3.32l6.18,5.87c5.1,4.81,11.72,7.45,18.73,7.45h16.66c7.22,0,14.15-2.87,19.26-7.98l5.1-5.1c2.28-2.28,5.38-3.57,8.61-3.57h44.2c7.29,0,13.07,6.29,12.32,13.7-.66,6.34-6.16,11.08-12.54,11.08h-38.23c-7.25,0-14.09,2.81-19.23,7.98l-5.1,5.07c-2.28,2.28-5.39,3.57-8.62,3.57H51.73c-3.58,0-6.8-2.92-6.84-6.5,0-.71.09-1.39.3-2.01.02-.11.07-.22.09-.31.33-.91.86-1.73,1.53-2.39,1.2-1.17,2.84-1.93,4.65-1.93h39.8c4.15,0,7.52-3.37,7.52-7.52h0c0-4.15-3.37-7.52-7.52-7.52h-39.42ZM236.67,321.13c0,6.29-.51,12.19-1.42,17.71-2.61,14.01-8.33,27.24-16.89,38.94-2.42,3.3-5.01,6.4-7.78,9.33-.11.13-.22.24-.33.35-1.51,1.57-3.04,3.08-4.63,4.54,0,.02-.04.04-.04.07-.75.69-1.51,1.35-2.28,2.02-.29.24-.58.51-.86.75-7.38,6.16-15.62,11.21-24.58,14.94-3.9,1.64-6.4,5.5-6.45,9.73l-.22,24.53c0,4.48-1.8,8.6-5.05,11.57-2.93,2.66-6.72,4.14-10.7,4.14-2.73,0-5.34-.69-7.62-1.97-2.28-1.28-4.25-3.15-5.69-5.5l-16.93-27.5c-.66-1.09-1.4-2.11-2.19-3.1-.02-.02-.07-.07-.09-.09-3.44-4.43-8.13-7.82-13.47-9.68-13.07-4.59-24.84-11.88-34.75-21.45-.33-.29-.64-.6-.95-.93-.38-.38-.75-.75-1.15-1.15-.8-.82-1.57-1.64-2.35-2.48-2.62-2.9-5.07-5.96-7.38-9.2-8.33-11.7-13.92-24.84-16.49-38.74-.95-5.67-1.48-11.75-1.48-18.26v-38.49c0-12.7,10.3-22.98,22.98-22.98h85.03c7.29,0,14.12-2.84,19.26-7.98l5.1-5.1c2.28-2.26,5.38-3.55,8.62-3.55h44.28c3.35,0,6.29,2.53,6.52,5.89.13,1.93-.6,3.68-1.84,4.92-1.13,1.13-2.73,1.84-4.48,1.84h-37.85c-3.15,0-6.01,1.91-7.14,4.76-.02.09-.07.18-.11.29,0,.02,0,.04-.02.09-.02.09-.07.18-.09.29-.02.09-.07.2-.09.31-.02.09-.04.18-.04.27-.97,4.83,2.7,9.04,7.36,9.04h21.34c12.7,0,22.98,10.28,22.98,22.98v28.85ZM176.93,171.65h51.86c4.3,0,8.05,3.55,7.89,7.84-.09,1.97-.91,3.72-2.22,5.03-1.35,1.37-3.24,2.22-5.32,2.22h-49.06c-7.27,0-14.12,2.81-19.26,7.96l-5.1,5.1c-2.26,2.28-5.36,3.57-8.58,3.57h-16.66c-3.12,0-6.14-1.2-8.4-3.32l-6.2-5.87-3.5-3.28c-2.81-2.66-6.54-4.14-10.42-4.14h-49.17c-4.01,0-7.6-2.99-7.89-7-.15-2.3.71-4.41,2.19-5.87,1.37-1.37,3.26-2.22,5.34-2.22h52.19c3.59,0,6.8-2.48,7.49-6.01.93-4.83-2.73-9.04-7.38-9.04h-51.94c-4.01,0-7.6-2.97-7.89-6.98-.15-2.3.71-4.41,2.19-5.87,1.37-1.37,3.26-2.22,5.34-2.22h44.34c7.29,0,14.12-2.84,19.26-7.98l5.12-5.07c2.28-2.3,5.41-3.59,8.67-3.59h16.55c3.12,0,6.14,1.2,8.42,3.35l6.2,5.87c5.05,4.76,11.74,7.42,18.68,7.42h49.11c4.3,0,8.05,3.55,7.89,7.84-.09,1.97-.91,3.72-2.22,5.03-1.35,1.35-3.24,2.19-5.32,2.19h-52.06c-3.59,0-6.8,2.48-7.51,6.01-.95,4.83,2.73,9.04,7.36,9.04Z"/>
      <path class="cls-1" d="M213.71,284.61H67.85c-6.76,0-12.24,5.48-12.24,12.24v23.36c0,37.31,23.66,69.68,56.98,81.58,8.98,3.21,16.66,9.27,21.66,17.38l12.74,20.68,4.2,6.82c2.67,4.34,9.35,2.44,9.35-2.65v-26.18c0-7.58,4.63-14.38,11.67-17.19,31.45-12.53,53.74-43.28,53.74-79.15v-24.65c0-6.76-5.48-12.24-12.24-12.24Z"/>
      <g>
        <rect class="cls-2" x="119.25" y="142.35" width="43.71" height="43.71" rx="7.15" ry="7.15"/>
        <g>
          <circle class="cls-2" cx="174.79" cy="337.17" r="11.68"/>
          <circle class="cls-2" cx="107.41" cy="337.17" r="11.68"/>
          <circle class="cls-2" cx="141.1" cy="337.17" r="11.68"/>
        </g>
      </g>
    </g>
  </g>
</svg>