<?xml version="1.0" encoding="UTF-8"?>
<svg id="Layer_2" data-name="Layer 2" xmlns="http://www.w3.org/2000/svg" viewBox="0 0 598.11 504.93">
  <defs>
    <style>
      .cls-1 {
        fill: #0066bf;
      }

      .cls-2 {
        fill: #ffa30a;
      }
    </style>
  </defs>
  <g id="Layer_1-2" data-name="Layer 1">
    <g>
      <g>
        <path class="cls-1" d="M108.24,140.45h0c0,5.98-4.85,10.82-10.82,10.82h-31.66v112.69c0,6.37-5.16,11.53-11.53,11.53h0c-6.37,0-11.53-5.16-11.53-11.53v-112.69H10.82c-5.98,0-10.82-4.85-10.82-10.82h0c0-5.98,4.85-10.82,10.82-10.82h86.59c5.98,0,10.82,4.85,10.82,10.82Z"/>
        <path class="cls-1" d="M151.84,165.23c14.97,0,27.11,12.14,27.11,27.11v18.21c0,14.97-12.14,27.11-27.11,27.11h-48.96c.2,12.14,3.84,15.38,16.79,15.38h43.6c6.2,0,11.23,5.03,11.23,11.23h0c0,6.2-5.03,11.23-11.23,11.23h-56.35c-14.97,0-27.11-12.14-27.11-27.11v-56.04c0-14.97,12.14-27.11,27.11-27.11h44.91ZM145.37,216.22c5.87,0,10.52-4.86,10.52-10.72v-7.89c0-5.87-4.65-10.72-10.52-10.72h-31.76c-5.87,0-10.72,4.86-10.72,10.72v18.61h42.49Z"/>
        <path class="cls-1" d="M217.79,275.5c-14.97,0-27.11-12.14-27.11-27.11v-55.84c0-15.02,12.29-27.31,27.31-27.31h44.71c13.56,0,26.71,10.09,26.91,23.27v.76c.12,7.04-5.56,12.8-12.6,12.8h-.82c-4.92,0-9.19-3.07-11.15-7.59-1.65-3.79-5.49-7.59-14.28-7.59h-21.85c-11.53,0-15.17,4.45-15.17,15.17v38.04c0,7.28,3.64,13.76,15.17,13.76h21.85c8.17,0,12.58-2.13,14.46-7.19,1.78-4.78,6.56-7.79,11.67-7.79h0c7.42,0,13.23,6.44,12.43,13.82-.04.33-.07.59-.11.75-1.01,12.54-13.15,22.05-26.5,22.05h-44.91Z"/>
        <path class="cls-1" d="M325.37,315.33h0c0,5.98-4.85,10.82-10.82,10.82h-62.06v112.69c0,6.37-5.16,11.53-11.53,11.53h0c-6.37,0-11.53-5.16-11.53-11.53v-112.69h-31.86c-5.98,0-10.82-4.85-10.82-10.82h0c0-5.98,4.85-10.82,10.82-10.82h116.99c5.98,0,10.82,4.85,10.82,10.82Z"/>
        <path class="cls-1" d="M357.56,450.38h-7.89c-4.13,0-7.49-3.35-7.49-7.49h0c-4.86,4.65-11.53,7.49-18.61,7.49h-30.55c-14.97,0-27.11-12.14-27.11-27.11v-18.21c0-14.97,12.14-27.11,27.11-27.11h30.55c7.08,0,13.76.37,18.61,4.42v-2.6c0-12.38-3.54-17.2-17.2-17.2h-35.51c-6.2,0-11.23-5.03-11.23-11.23h0c0-6.2,5.03-11.23,11.23-11.23h48.45c14.97,0,27.11,12.14,27.11,27.11v75.67c0,4.13-3.35,7.49-7.49,7.49ZM299.49,399.6c-5.87,0-10.52,4.85-10.52,10.52v8.09c0,5.66,4.65,10.52,10.52,10.52h30.75c5.87,0,10.72-4.85,10.72-10.52v-8.09c0-5.66-4.86-10.52-10.72-10.52h-30.75Z"/>
        <path class="cls-1" d="M400.76,192.55c0-15.02-12.29-27.31-27.31-27.31h-30.15c-7.28,0-13.56,1.39-18.21,6.04v-59.07c0-6.37-5.16-11.53-11.53-11.53h0c-6.37,0-11.53,5.16-11.53,11.53v151.76c0,6.37,5.16,11.53,11.53,11.53h0c6.37,0,11.53-5.16,11.53-11.53v-61.91c0-8.29,3.44-15.17,18.21-15.17h19.42c8.35,0,15.17,6.83,15.17,15.17v236.99c0,6.27,5.06,11.38,11.33,11.43h0c6.35.06,11.53-5.08,11.53-11.43v-246.5Z"/>
        <path class="cls-1" d="M426.34,304.51h0c6.37,0,11.53,5.16,11.53,11.53v59.08s34.73-32.13,34.73-32.13c1.99-1.84,4.61-2.87,7.32-2.87h0c9.81,0,14.52,12.04,7.32,18.7l-25.3,23.39,37.91,49.71c5.77,7.57.37,18.47-9.14,18.47h0c-3.59,0-6.97-1.68-9.15-4.53l-36.61-48.07-7.08,6.47v34.19c0,6.37-5.16,11.53-11.53,11.53h0c-6.37,0-11.53-5.16-11.53-11.53v-122.4c0-6.37,5.16-11.53,11.53-11.53Z"/>
        <circle class="cls-2" cx="527.24" cy="434.44" r="16.14"/>
      </g>
      <g>
        <path class="cls-2" d="M257.3,483.5c0,7.21-5.33,11.65-13.95,11.65h-7.39v9.45h-6.08v-32.76h13.48c8.61,0,13.95,4.4,13.95,11.65ZM251.16,483.5c0-4.12-2.76-6.51-8.1-6.51h-7.11v13.01h7.11c5.33,0,8.1-2.39,8.1-6.51Z"/>
        <path class="cls-2" d="M281.27,492.11c0-7.49,5.62-12.78,13.29-12.78s13.34,5.29,13.34,12.78-5.57,12.82-13.34,12.82-13.29-5.33-13.29-12.82ZM302,492.11c0-4.77-3.18-7.82-7.44-7.82s-7.39,3.04-7.39,7.82,3.18,7.82,7.39,7.82,7.44-3.04,7.44-7.82Z"/>
        <path class="cls-2" d="M358.59,469.88v34.73h-5.62v-3.23c-1.97,2.39-4.87,3.56-8.28,3.56-7.26,0-12.64-5.05-12.64-12.82s5.38-12.78,12.64-12.78c3.23,0,6.08,1.08,8.05,3.37v-12.82h5.85ZM352.83,492.11c0-4.77-3.23-7.82-7.44-7.82s-7.44,3.04-7.44,7.82,3.23,7.82,7.44,7.82,7.44-3.04,7.44-7.82Z"/>
        <path class="cls-2" d="M384.8,492.11c0-7.49,5.62-12.78,13.53-12.78,4.87,0,8.75,2.01,10.67,5.8l-4.49,2.62c-1.5-2.39-3.74-3.46-6.22-3.46-4.31,0-7.58,3-7.58,7.82s3.28,7.82,7.58,7.82c2.48,0,4.73-1.08,6.22-3.46l4.49,2.62c-1.92,3.74-5.8,5.85-10.67,5.85-7.91,0-13.53-5.33-13.53-12.82Z"/>
        <path class="cls-2" d="M455.57,489.96v14.65h-5.52v-3.04c-1.4,2.15-4.12,3.37-7.86,3.37-5.71,0-9.31-3.13-9.31-7.49s2.81-7.44,10.39-7.44h6.46v-.37c0-3.42-2.06-5.43-6.22-5.43-2.81,0-5.71.94-7.58,2.48l-2.29-4.26c2.67-2.06,6.55-3.09,10.58-3.09,7.21,0,11.37,3.42,11.37,10.62ZM449.72,496.79v-2.9h-6.04c-3.98,0-5.05,1.5-5.05,3.32,0,2.11,1.78,3.46,4.77,3.46s5.33-1.31,6.32-3.88Z"/>
        <path class="cls-2" d="M480.81,502.12l2.25-4.45c2.2,1.45,5.57,2.48,8.7,2.48,3.7,0,5.24-1.03,5.24-2.76,0-4.77-15.44-.28-15.44-10.25,0-4.73,4.26-7.82,11-7.82,3.32,0,7.11.8,9.36,2.15l-2.25,4.45c-2.39-1.4-4.77-1.87-7.16-1.87-3.56,0-5.24,1.17-5.24,2.81,0,5.05,15.44.56,15.44,10.34,0,4.68-4.31,7.72-11.33,7.72-4.17,0-8.33-1.22-10.58-2.81Z"/>
        <path class="cls-2" d="M543.38,503.25c-1.4,1.12-3.51,1.68-5.62,1.68-5.48,0-8.61-2.9-8.61-8.42v-12.03h-4.12v-4.68h4.12v-5.71h5.85v5.71h6.69v4.68h-6.69v11.89c0,2.43,1.22,3.74,3.46,3.74,1.22,0,2.39-.33,3.28-1.03l1.64,4.17Z"/>
      </g>
      <g>
        <path class="cls-1" d="M588.98,177.96c-1.98-.14-3.95.3-5.65,1.29v-101.83c0-.56-.01-1.14-.03-1.72v-.1c0-.14,0-.29-.01-.45v-.46c-.01-.09-.01-.19-.03-.29v-.19c-.01-.33-.03-.67-.04-1.01-.01-.16-.03-.32-.03-.48v-.13c-.04-.61-.09-1.13-.13-1.61-.01-.26-.04-.51-.06-.75-.01-.16-.03-.29-.04-.39-.01-.2-.04-.39-.06-.58-.01-.22-.04-.43-.07-.65-.95-8.43-3.27-16.56-6.89-24.22-3.52-7.46-8.19-14.27-13.88-20.27-5.69-5.98-12.23-10.99-19.49-14.9-7.41-4-15.37-6.73-23.68-8.14h-.14s-.09-.03-.13-.04h-.09c-1.27-.22-2.58-.41-3.87-.55l-1.4-.14c-.39-.03-.77-.07-1.13-.1-.23-.01-.48-.03-.71-.04h-.07c-.35-.03-.69-.06-1.04-.07-.23-.01-.48-.03-.72-.04-.45-.01-.84-.03-1.2-.04h-.01c-.13,0-.26-.01-.41-.01h-.54c-.51-.01-1.01-.03-1.52-.03s-1.06,0-1.65.01c-.25.01-.48.01-.72.03-.22,0-.42.01-.59.01h-.13c-.25.01-.49.03-.72.04-.25,0-.48.01-.71.04h-.22c-.22.01-.45.03-.67.04-.55.04-1.1.09-1.69.14h-.23c-.13.03-.25.04-.36.04l-.56.04-.07.03c-.29.03-.56.06-.85.1-1.03.12-2.04.26-3.03.42h-.09c-.19.04-.36.07-.55.1-32.41,5.41-57.91,30.82-63.45,63.2-.01.12-.03.23-.06.33v.14c-.09.46-.16.91-.23,1.39-.03.17-.06.35-.07.52-.09.59-.17,1.2-.23,1.84-.01.04-.01.09-.03.13l-.04.39c-.01.17-.04.36-.06.54v.2c-.03.13-.04.27-.06.41v.2c-.12,1.2-.2,2.39-.25,3.53-.03.41-.04.81-.06,1.23v.38c-.03.68-.03,1.3-.03,1.91v101.81c-1.23-.71-2.61-1.16-4.08-1.27-.26-.01-.51-.03-.74-.03-.14,0-.27,0-.41.01h-.07c-.13,0-.25.01-.38.03-.16.01-.32.03-.48.04-.07.01-.13.03-.19.03-.09.01-.17.03-.25.04-.13.03-.27.06-.41.09-.1.01-.22.04-.33.07-.13.04-.26.07-.39.12h-.03c-.13.04-.26.09-.39.13-.13.06-.26.1-.39.16-.12.04-.25.1-.38.16-.13.06-.26.12-.38.17-.1.06-.2.12-.3.16-.16.09-.32.19-.46.27-.12.07-.22.14-.32.22-.12.07-.23.14-.33.23-.01.01-.03.01-.06.03-.1.07-.19.16-.29.23,0,.01-.01.01-.03.03-.09.07-.17.14-.26.22-.01.01-.04.03-.06.06-.1.09-.2.17-.29.26-.12.12-.22.22-.33.33-.09.1-.17.2-.26.29-.09.1-.16.2-.25.29h0c-.04.06-.09.12-.12.16-.23.29-.45.59-.64.93-.07.1-.13.2-.19.3-.54.96-.96,2.04-1.19,3.21-.04.17-.06.33-.06.49v22c0,10.68,1.79,21.18,5.33,31.21,3.43,9.7,8.4,18.73,14.78,26.84,12.83,16.29,30.82,27.9,50.67,32.69.52.13,1.04.25,1.58.36v4.24c0,4.56-3.71,8.27-8.27,8.27h-9.84c-2.49,0-4.84.97-6.6,2.74-1.77,1.75-2.74,4.1-2.74,6.6s.97,4.85,2.74,6.62c1.77,1.77,4.11,2.74,6.6,2.74h75.86c2.21,0,4.31-.77,5.99-2.19.12-.09.23-.19.35-.29.06-.06.12-.1.16-.16.1-.09.19-.19.29-.28.04-.06.09-.12.14-.16.04-.06.1-.12.14-.19.04-.04.09-.09.13-.14.09-.1.16-.2.23-.3.06-.06.1-.12.14-.19.26-.35.48-.71.68-1.09.04-.06.06-.12.09-.17.2-.39.36-.8.51-1.2.03-.06.04-.13.06-.19.14-.45.26-.91.32-1.39.03-.16.04-.32.07-.48,0-.07.01-.14.01-.23,0-.06.01-.12.01-.17,0-.17.01-.35.01-.54,0-2.5-.98-4.85-2.75-6.6-1.72-1.72-4.01-2.69-6.44-2.74h-10.19c-4.47-.12-8.05-3.78-8.05-8.27v-4.24c.26-.06.52-.12.78-.17l.75-.19c.22-.04.42-.1.62-.14.14-.04.3-.09.45-.12.04-.01.09-.03.13-.04.96-.23,1.9-.49,2.85-.77.04-.01.09-.03.13-.04.93-.26,1.75-.49,2.24-.64l.2-.06s.06-.01.09-.03l.16-.06c9.16-2.95,17.78-7.33,25.62-12.99,7.73-5.59,14.53-12.32,20.22-19.99,11.81-15.95,18.07-34.89,18.07-54.75v-21.76c0-5.28-4.01-9.73-9.13-10.1ZM449.12,50.89l.03-.12c.55-1.45,1.93-2.42,3.47-2.42h16.24c2.26,0,4.3-1.59,4.86-3.71.01-.06.03-.12.04-.17.01-.06.03-.1.03-.14.03-.07.03-.16.04-.23.01-.09.03-.16.03-.25h0c0-.06.01-.1.01-.14v-.1c.04-1.33-.45-2.55-1.27-3.46-.04-.06-.1-.12-.16-.17-.88-.88-2.11-1.43-3.47-1.43h-6.33c-2.4,0-3.63-2.88-1.97-4.62.01,0,.01-.01.03-.03l.04-.04c2.74-2.82,5.75-5.39,8.96-7.66.06-.03.1-.07.14-.1.77-.54,1.56-1.07,2.36-1.58.48-.3.96-.61,1.43-.88.42-.26.85-.52,1.29-.77.51-.27,1.01-.55,1.53-.83.51-.27,1.03-.55,1.55-.8.46-.23.93-.46,1.4-.67,1.55-.74,3.14-1.39,4.76-1.98.29-.1.56-.22.87-.3.35-.13.72-.26,1.09-.38.56-.19,1.13-.36,1.69-.52.48-.16.97-.29,1.46-.42.13-.04.26-.07.39-.1.52-.16,1.06-.27,1.59-.39.58-.16,1.16-.27,1.74-.41.69-.13,1.39-.28,2.08-.38.49-.09.98-.17,1.46-.25.49-.07.98-.14,1.48-.19.29-.04.56-.07.85-.1.35-.03.68-.07,1.01-.1.74-.07,1.49-.12,2.23-.17.58-.03,1.16-.06,1.72-.07.62-.01,1.25-.03,1.87-.03.71,0,1.43.01,2.14.04.67.01,1.32.06,1.97.1.12,0,.23.01.35.01.64.06,1.29.1,1.93.17h.01c.67.06,1.33.14,2,.23.07.01.16.01.23.03.52.07,1.04.14,1.53.23.29.04.58.09.88.16.56.09,1.13.2,1.69.32.68.13,1.35.27,2,.45.39.1.77.19,1.16.3.38.09.77.19,1.14.3,1.32.36,2.62.78,3.91,1.25.51.17,1.01.36,1.52.56.59.2,1.17.45,1.74.69.09.03.19.06.27.1.58.26,1.16.51,1.74.78.61.27,1.22.56,1.81.87,1.22.61,2.39,1.24,3.55,1.93.58.35,1.16.69,1.72,1.04,1.14.72,2.26,1.48,3.33,2.26,1.36.98,2.68,2.01,3.95,3.1,1.27,1.09,2.49,2.21,3.68,3.4.94.94,1.85,1.91,2.75,2.91.98,1.13,1.94,2.29,2.85,3.47.3.41.61.81.9,1.22l.03.04c.06.07.12.14.16.22.07.12.13.23.19.35.03.06.04.1.07.16.04.1.09.22.12.32.03.12.04.23.07.33.03.22.04.43.03.65h0c0,.09-.01.16-.01.23-.03.22-.09.43-.16.65-.03.12-.09.23-.13.33h0c-.06.12-.12.23-.19.33l-.09.13c-.09.12-.17.23-.27.35-.22.22-.45.41-.72.55-.09.06-.17.1-.27.14-.38.16-.8.26-1.26.26h-59.3c-4.72,0-9.24,1.88-12.58,5.21l-3.32,3.32c-1.49,1.51-3.53,2.35-5.65,2.35h-20.09c-2.98,0-5.04-2.98-4-5.76ZM443.54,74.22v-.23c.25-4.21,3.74-7.53,7.96-7.53h21.71c4.75,0,9.22-1.85,12.58-5.21l3.33-3.32c1.49-1.49,3.52-2.33,5.63-2.33h65.55c.32,0,.62.03.94.1.87.17,1.77.59,2.52,1.16.06.04.12.09.16.13.16.13.32.26.45.39.06.06.1.1.14.14.38.38.68.8.9,1.23h0c.58,1.17.49,2.42-.03,3.43-.06.1-.12.2-.19.3-.1.16-.2.3-.32.43-.04.04-.09.09-.13.13-.67.69-1.61,1.14-2.69,1.14h-27.04c-2.85,0-5.15,2.45-4.88,5.37.22,2.56,2.52,4.46,5.08,4.46h28.82c.67,0,1.3.14,1.87.42.19.09.36.2.54.32.12.07.23.16.33.25.12.09.22.17.3.28.88.88,1.38,2.13,1.25,3.49-.01.13-.03.26-.06.39h0s-.01.04-.01.06c0,.04-.01.09-.03.14-.03.13-.07.25-.12.36v.03c-.03.06-.04.12-.06.17-.67,1.62-2.37,2.69-4.2,2.69h-32.7c-2.04,0-4-.77-5.47-2.17l-4.05-3.84c-3.31-3.13-7.66-4.85-12.22-4.85h-10.87c-4.72,0-9.25,1.87-12.58,5.2l-3.33,3.33c-1.49,1.49-3.5,2.33-5.62,2.33h-25.51c-4.59,0-8.22-3.84-7.96-8.41ZM447.63,140.44c-2.1,0-4.04-1.39-4.45-3.45-.31-1.53.24-2.93,1.2-3.89.78-.8,1.87-1.29,3.07-1.29h29.81c2.04,0,3.98.78,5.47,2.17l4.04,3.84c3.33,3.14,7.66,4.86,12.23,4.86h10.89c4.72,0,9.24-1.87,12.58-5.21l3.33-3.33c1.49-1.49,3.52-2.33,5.63-2.33h28.87c4.76,0,8.54,4.11,8.05,8.95-.43,4.14-4.02,7.24-8.19,7.24h-24.97c-4.73,0-9.21,1.84-12.57,5.21l-3.33,3.31c-1.49,1.49-3.52,2.33-5.63,2.33h-66.08c-2.34,0-4.44-1.91-4.47-4.25,0-.46.06-.91.2-1.31.01-.07.04-.14.06-.2.22-.59.56-1.13,1-1.56.78-.77,1.85-1.26,3.04-1.26h26c2.71,0,4.91-2.2,4.91-4.91h0c0-2.71-2.2-4.91-4.91-4.91h-25.75ZM568.38,209.78c0,4.11-.33,7.96-.93,11.57-1.71,9.15-5.44,17.79-11.03,25.44-1.58,2.16-3.27,4.18-5.08,6.09-.07.09-.14.16-.22.23-.98,1.03-1.98,2.01-3.03,2.97,0,.01-.03.03-.03.04-.49.45-.98.88-1.49,1.32-.19.16-.38.33-.56.49-4.82,4.02-10.21,7.33-16.06,9.76-2.55,1.07-4.18,3.59-4.21,6.36l-.14,16.03c0,2.92-1.17,5.62-3.3,7.56-1.91,1.74-4.39,2.71-6.99,2.71-1.78,0-3.49-.45-4.98-1.29-1.49-.84-2.78-2.06-3.72-3.59l-11.06-17.97c-.43-.71-.91-1.38-1.43-2.03-.01-.01-.04-.04-.06-.06-2.24-2.9-5.31-5.11-8.8-6.33-8.54-3-16.23-7.76-22.7-14.01-.22-.19-.42-.39-.62-.61-.25-.25-.49-.49-.75-.75-.52-.54-1.03-1.07-1.53-1.62-1.71-1.9-3.32-3.89-4.82-6.01-5.44-7.64-9.09-16.23-10.77-25.31-.62-3.71-.97-7.67-.97-11.93v-25.15c0-8.3,6.73-15.01,15.01-15.01h55.55c4.76,0,9.22-1.85,12.58-5.21l3.33-3.33c1.49-1.48,3.52-2.32,5.63-2.32h28.92c2.19,0,4.11,1.65,4.26,3.85.09,1.26-.39,2.4-1.2,3.21-.74.74-1.78,1.2-2.92,1.2h-24.73c-2.06,0-3.92,1.24-4.66,3.11-.01.06-.04.12-.07.19,0,.01,0,.03-.01.06-.01.06-.04.12-.06.19-.01.06-.04.13-.06.2-.01.06-.03.12-.03.17-.64,3.16,1.77,5.91,4.81,5.91h13.94c8.29,0,15.01,6.72,15.01,15.01v18.85ZM529.35,112.14h33.88c2.81,0,5.26,2.32,5.15,5.12-.06,1.29-.59,2.43-1.45,3.29-.88.9-2.11,1.45-3.47,1.45h-32.05c-4.75,0-9.22,1.84-12.58,5.2l-3.33,3.33c-1.48,1.49-3.5,2.33-5.6,2.33h-10.89c-2.04,0-4.01-.78-5.49-2.17l-4.05-3.84-2.29-2.14c-1.84-1.74-4.27-2.71-6.8-2.71h-32.12c-2.62,0-4.97-1.95-5.15-4.57-.1-1.51.46-2.88,1.43-3.84.9-.9,2.13-1.45,3.49-1.45h34.09c2.35,0,4.44-1.62,4.89-3.92.61-3.16-1.78-5.91-4.82-5.91h-33.93c-2.62,0-4.97-1.94-5.15-4.56-.1-1.51.46-2.88,1.43-3.84.9-.9,2.13-1.45,3.49-1.45h28.97c4.76,0,9.22-1.85,12.58-5.21l3.34-3.32c1.49-1.51,3.53-2.35,5.66-2.35h10.81c2.04,0,4.01.78,5.5,2.19l4.05,3.84c3.3,3.11,7.67,4.85,12.2,4.85h32.08c2.81,0,5.26,2.32,5.15,5.12-.06,1.29-.59,2.43-1.45,3.29-.88.88-2.11,1.43-3.47,1.43h-34.01c-2.34,0-4.44,1.62-4.91,3.92-.62,3.16,1.78,5.91,4.81,5.91Z"/>
        <path class="cls-1" d="M553.37,185.93h-95.28c-4.42,0-8,3.58-8,8v15.26c0,24.37,15.45,45.52,37.22,53.3,5.86,2.1,10.88,6.05,14.15,11.36l8.33,13.51,2.74,4.45c1.75,2.83,6.11,1.6,6.11-1.73v-17.1c0-4.95,3.02-9.4,7.62-11.23,20.55-8.19,35.11-28.28,35.11-51.71v-16.1c0-4.42-3.58-8-8-8Z"/>
        <g>
          <rect class="cls-2" x="491.66" y="92.99" width="28.55" height="28.55" rx="4.67" ry="4.67"/>
          <g>
            <circle class="cls-2" cx="527.95" cy="220.26" r="7.63"/>
            <circle class="cls-2" cx="483.93" cy="220.26" r="7.63"/>
            <circle class="cls-2" cx="505.94" cy="220.26" r="7.63"/>
          </g>
        </g>
      </g>
    </g>
  </g>
</svg>